<svg xmlns="http://www.w3.org/2000/svg" viewBox="0 0 64 64">
  <!-- crust -->
  <path d="M32 6 L58 54 Q32 62 6 54 Z" fill="#e8a33d"/>
  <!-- cheese -->
  <path d="M32 10 L52.5 48 Q32 55 11.5 48 Z" fill="#ffcf56"/>
  <!-- crust rim highlight -->
  <path d="M6 54 Q32 62 58 54 L55.5 49 Q32 56.5 8.5 49 Z" fill="#c97f24"/>
  <!-- pepperoni -->
  <circle cx="30" cy="24" r="4.6" fill="#d94f3d"/>
  <circle cx="30" cy="24" r="4.6" fill="none" stroke="#b8402f" stroke-width="1"/>
  <circle cx="21" cy="38" r="4.2" fill="#d94f3d"/>
  <circle cx="21" cy="38" r="4.2" fill="none" stroke="#b8402f" stroke-width="1"/>
  <circle cx="39" cy="39" r="4.2" fill="#d94f3d"/>
  <circle cx="39" cy="39" r="4.2" fill="none" stroke="#b8402f" stroke-width="1"/>
  <!-- cute face on the slice -->
  <circle cx="24" cy="46" r="1.7" fill="#2a1b0f"/>
  <circle cx="40" cy="46" r="1.7" fill="#2a1b0f"/>
  <circle cx="20.5" cy="49.5" r="2.2" fill="#f28ba0" opacity="0.7"/>
  <circle cx="43.5" cy="49.5" r="2.2" fill="#f28ba0" opacity="0.7"/>
  <path d="M27 50.5 Q32 54.5 37 50.5" fill="none" stroke="#2a1b0f" stroke-width="1.6" stroke-linecap="round"/>
</svg>
