<svg xmlns="http://www.w3.org/2000/svg" viewBox="0 0 64 64">
  <g transform="rotate(13 32 32)">
    <!-- crust -->
    <path d="M32 58 L58 10 Q32 2 6 10 Z" fill="#e8a33d"/>
    <!-- cheese -->
    <path d="M32 54 L52.5 16 Q32 9 11.5 16 Z" fill="#ffcf56"/>
    <!-- crust rim highlight -->
    <path d="M6 10 Q32 2 58 10 L55.5 15 Q32 7.5 8.5 15 Z" fill="#c97f24"/>
    <!-- pepperoni -->
    <circle cx="32" cy="22" r="4.6" fill="#d94f3d"/>
    <circle cx="32" cy="22" r="4.6" fill="none" stroke="#b8402f" stroke-width="1"/>
    <circle cx="21" cy="30" r="4" fill="#d94f3d"/>
    <circle cx="21" cy="30" r="4" fill="none" stroke="#b8402f" stroke-width="1"/>
    <circle cx="42" cy="29" r="4" fill="#d94f3d"/>
    <circle cx="42" cy="29" r="4" fill="none" stroke="#b8402f" stroke-width="1"/>
    <!-- cute face on the slice -->
    <circle cx="26" cy="35" r="1.6" fill="#2a1b0f"/>
    <circle cx="38" cy="35" r="1.6" fill="#2a1b0f"/>
    <circle cx="23" cy="38.5" r="2" fill="#f28ba0" opacity="0.7"/>
    <circle cx="41" cy="38.5" r="2" fill="#f28ba0" opacity="0.7"/>
    <path d="M28 40 Q32 43.5 36 40" fill="none" stroke="#2a1b0f" stroke-width="1.6" stroke-linecap="round"/>
  </g>
</svg>
